<svg width="133" height="21" viewBox="0 0 133 21" fill="none" xmlns="http://www.w3.org/2000/svg">
<path d="M10.7608 16.1982L10.5002 16.039L10.2396 16.1982L4.83636 19.4983L6.30531 13.3393L6.37616 13.0422L6.14422 12.8436L1.33697 8.72571L7.64716 8.22016L7.95161 8.19576L8.0689 7.91375L10.5002 2.06759L12.9315 7.91375L13.0488 8.19577L13.3533 8.22016L19.6643 8.72571L14.8563 12.8435L14.6243 13.0422L14.6951 13.3393L16.164 19.4983L10.7608 16.1982Z" stroke="#DCDCDC"/>
<path d="M38.7608 16.1982L38.5002 16.039L38.2396 16.1982L32.8364 19.4983L34.3053 13.3393L34.3762 13.0422L34.1442 12.8436L29.337 8.72571L35.6472 8.22016L35.9516 8.19576L36.0689 7.91375L38.5002 2.06759L40.9315 7.91375L41.0488 8.19577L41.3533 8.22016L47.6643 8.72571L42.8563 12.8435L42.6243 13.0422L42.6951 13.3393L44.164 19.4983L38.7608 16.1982Z" stroke="#DCDCDC"/>
<path d="M66.7608 16.1982L66.5002 16.039L66.2396 16.1982L60.8364 19.4983L62.3053 13.3393L62.3762 13.0422L62.1442 12.8436L57.337 8.72571L63.6472 8.22016L63.9516 8.19576L64.0689 7.91375L66.5002 2.06759L68.9315 7.91375L69.0488 8.19577L69.3533 8.22016L75.6643 8.72571L70.8563 12.8435L70.6243 13.0422L70.6951 13.3393L72.164 19.4983L66.7608 16.1982Z" stroke="#DCDCDC"/>
<path d="M94.7608 16.1982L94.5002 16.039L94.2396 16.1982L88.8364 19.4983L90.3053 13.3393L90.3762 13.0422L90.1442 12.8436L85.337 8.72571L91.6472 8.22016L91.9516 8.19576L92.0689 7.91375L94.5002 2.06759L96.9315 7.91375L97.0488 8.19577L97.3533 8.22016L103.664 8.72571L98.8563 12.8435L98.6243 13.0422L98.6951 13.3393L100.164 19.4983L94.7608 16.1982Z" stroke="#DCDCDC"/>
<path d="M122.761 16.1982L122.5 16.039L122.24 16.1982L116.836 19.4983L118.305 13.3393L118.376 13.0422L118.144 12.8436L113.337 8.72571L119.647 8.22016L119.952 8.19576L120.069 7.91375L122.5 2.06759L124.932 7.91375L125.049 8.19577L125.353 8.22016L131.664 8.72571L126.856 12.8435L126.624 13.0422L126.695 13.3393L128.164 19.4983L122.761 16.1982Z" stroke="#DCDCDC"/>
</svg>
