<svg width="133" height="21" viewBox="0 0 133 21" fill="none" xmlns="http://www.w3.org/2000/svg">
<path d="M10.5012 16.6249L4.07211 20.5515L5.81992 13.2233L0.0996094 8.32332L7.60821 7.72175L10.5012 0.765503L13.3942 7.72175L20.9038 8.32332L15.1825 13.2233L16.9302 20.5515L10.5012 16.6249Z" fill="#FFE381"/>
<path d="M38.5012 16.6249L32.0721 20.5515L33.8199 13.2233L28.0996 8.32332L35.6082 7.72175L38.5012 0.765503L41.3942 7.72175L48.9038 8.32332L43.1825 13.2233L44.9302 20.5515L38.5012 16.6249Z" fill="#FFE381"/>
<path d="M66.5012 16.6249L60.0721 20.5515L61.8199 13.2233L56.0996 8.32332L63.6082 7.72175L66.5012 0.765503L69.3942 7.72175L76.9038 8.32332L71.1825 13.2233L72.9302 20.5515L66.5012 16.6249Z" fill="#FFE381"/>
<path d="M94.5012 16.6249L88.0721 20.5515L89.8199 13.2233L84.0996 8.32332L91.6082 7.72175L94.5012 0.765503L97.3942 7.72175L104.904 8.32332L99.1825 13.2233L100.93 20.5515L94.5012 16.6249Z" fill="#FFE381"/>
<path d="M122.501 16.6249L116.072 20.5515L117.82 13.2233L112.1 8.32332L119.608 7.72175L122.501 0.765503L125.394 7.72175L132.904 8.32332L127.182 13.2233L128.93 20.5515L122.501 16.6249Z" fill="#FFE381"/>
</svg>
